<?xml version="1.0" encoding="iso-8859-1"?>
<!-- Generator: Adobe Illustrator 19.0.0, SVG Export Plug-In . SVG Version: 6.00 Build 0)  -->
<svg version="1.1" id="Layer_1" xmlns="http://www.w3.org/2000/svg" xmlns:xlink="http://www.w3.org/1999/xlink" x="0px" y="0px"
	 viewBox="0 0 512 512" style="enable-background:new 0 0 512 512;" xml:space="preserve">
<path style="fill:#DBDBDB;" d="M503.915,41.095v429.812c0,17.62-13.814,32.514-31.428,32.996
	c-16.592,0.455-30.462-11.593-32.875-27.409c-0.432-2.836-2.893-4.916-5.76-4.916c-2.874,0-5.328,2.089-5.762,4.93
	c-2.374,15.518-15.78,27.406-31.964,27.406c-16.183,0-29.589-11.887-31.964-27.406c-0.434-2.841-2.889-4.93-5.762-4.93l0,0
	c-2.874,0-5.328,2.089-5.762,4.93c-2.374,15.518-15.78,27.406-31.964,27.406s-29.589-11.887-31.964-27.406
	c-0.434-2.841-2.889-4.93-5.762-4.93l0,0c-2.874,0-5.328,2.089-5.762,4.93c-2.374,15.518-15.78,27.406-31.964,27.406
	s-29.589-11.887-31.964-27.406c-0.434-2.841-2.889-4.93-5.762-4.93c-2.868,0-5.328,2.08-5.76,4.916
	c-2.412,15.816-16.282,27.864-32.875,27.409c-17.614-0.483-31.428-15.377-31.428-32.996V41.095c0-17.62,13.814-32.515,31.428-32.996
	c16.592-0.455,30.462,11.593,32.875,27.409c0.432,2.835,2.893,4.916,5.76,4.916c2.874,0,5.328-2.089,5.762-4.93
	c2.374-15.519,15.78-27.406,31.964-27.406s29.589,11.887,31.964,27.406c0.434,2.84,2.889,4.93,5.762,4.93l0,0
	c2.874,0,5.328-2.089,5.762-4.93c2.374-15.519,15.78-27.406,31.964-27.406s29.589,11.887,31.964,27.406
	c0.434,2.84,2.889,4.93,5.762,4.93l0,0c2.874,0,5.328-2.089,5.762-4.93c2.374-15.519,15.78-27.406,31.964-27.406
	c16.183,0,29.589,11.887,31.964,27.406c0.434,2.84,2.889,4.93,5.762,4.93c2.868,0,5.328-2.08,5.76-4.916
	c2.412-15.816,16.282-27.864,32.875-27.409C490.1,8.58,503.915,23.475,503.915,41.095z"/>
<path style="fill:#FEBD4B;" d="M98.628,182.704c0,25.003-20.269,45.271-45.271,45.271S8.085,207.707,8.085,182.704
	s20.269-45.271,45.271-45.271S98.628,157.702,98.628,182.704z"/>
<path style="fill:#FEE66B;" d="M158.99,226.538c0,25.003-20.269,45.271-45.271,45.271s-45.271-20.269-45.271-45.271
	s20.269-45.271,45.271-45.271S158.99,201.535,158.99,226.538z"/>
<path style="fill:#FE7D49;" d="M266.779,281.87v129.347c0,11.906-9.651,21.558-21.558,21.558H29.643
	c-11.906,0-21.558-9.651-21.558-21.558V281.87c0-11.906,9.651-21.558,21.558-21.558h215.578
	C257.127,260.313,266.779,269.964,266.779,281.87z"/>
<path style="fill:#FE5A3A;" d="M266.779,321.752v89.465c0,11.906-9.651,21.558-21.558,21.558H29.643
	c-11.906,0-21.558-9.651-21.558-21.558v-89.465H266.779z"/>
<path style="fill:#FED76E;" d="M93.043,348.7H52.473c-6.656,0-12.051-5.396-12.051-12.051v-29.792
	c0-6.656,5.396-12.051,12.051-12.051h40.571c6.656,0,12.051,5.396,12.051,12.051v29.792C105.095,343.304,99.699,348.7,93.043,348.7z
	"/>
<path d="M512,41.094v429.812c0,22.056-17.627,40.485-39.29,41.077c-17.401,0.489-32.837-10.217-38.867-25.887
	c-5.918,15.226-20.87,25.902-37.717,25.902c-16.855,0-31.814-10.686-37.726-25.925c-5.912,15.239-20.871,25.925-37.726,25.925
	c-16.855,0-31.814-10.686-37.726-25.925c-5.912,15.239-20.871,25.925-37.726,25.925c-16.846,0-31.798-10.675-37.718-25.902
	c-6.03,15.668-21.443,26.392-38.866,25.887c-21.665-0.595-39.29-19.022-39.29-41.077v-10.465c0-4.466,3.62-8.084,8.084-8.084
	s8.084,3.618,8.084,8.084v10.465c0,13.382,10.572,24.559,23.565,24.915c12.246,0.346,22.823-8.499,24.661-20.547
	c1.04-6.826,6.824-11.781,13.752-11.781c6.924,0,12.709,4.959,13.754,11.791c1.791,11.712,12.097,20.546,23.972,20.546
	s22.18-8.832,23.971-20.545c1.047-6.834,6.831-11.792,13.755-11.792s12.708,4.959,13.755,11.791
	c1.793,11.715,12.097,20.547,23.972,20.547c11.875,0,22.18-8.832,23.971-20.545c1.047-6.834,6.831-11.792,13.755-11.792
	c6.924,0,12.708,4.959,13.755,11.791c1.791,11.713,12.096,20.546,23.971,20.546c11.875,0,22.18-8.832,23.971-20.545
	c1.047-6.834,6.831-11.792,13.755-11.792c6.928,0,12.712,4.955,13.753,11.781c1.837,12.049,12.414,20.842,24.661,20.547
	c12.994-0.357,23.565-11.533,23.565-24.915V41.094c0-13.382-10.572-24.559-23.566-24.915c-12.236-0.307-22.822,8.498-24.66,20.547
	c-1.041,6.825-6.826,11.78-13.753,11.78c-6.924,0-12.708-4.959-13.755-11.791C418.306,25.002,408,16.169,396.126,16.169
	s-22.18,8.832-23.971,20.545c-1.047,6.834-6.831,11.792-13.755,11.792c-6.924,0-12.708-4.959-13.755-11.791
	c-1.791-11.712-12.097-20.546-23.971-20.546s-22.18,8.832-23.971,20.545c-1.047,6.834-6.831,11.792-13.755,11.792
	c-6.924,0-12.708-4.959-13.755-11.791c-1.791-11.712-12.097-20.546-23.971-20.546c-11.874,0-22.181,8.832-23.972,20.545
	c-1.046,6.834-6.83,11.792-13.754,11.792c-6.929,0-12.712-4.955-13.753-11.782c-1.838-12.048-12.462-20.897-24.661-20.546
	c-12.994,0.357-23.565,11.533-23.565,24.915v113.943c0,4.466-3.62,8.084-8.084,8.084s-8.084-3.618-8.084-8.084V41.094
	c0-22.056,17.626-40.483,39.29-41.077c17.414-0.487,32.837,10.218,38.866,25.886C213.422,10.675,228.375,0,245.221,0
	c16.855,0,31.814,10.686,37.726,25.925C288.86,10.687,303.819,0,320.674,0c16.855,0,31.814,10.686,37.726,25.925
	C364.312,10.687,379.271,0,396.126,0c16.846,0,31.799,10.675,37.717,25.902c6.03-15.667,21.504-26.367,38.866-25.887
	C494.373,0.611,512,19.038,512,41.094z M439.242,377.263h-43.116c-4.466,0-8.084,3.618-8.084,8.084s3.618,8.084,8.084,8.084h43.116
	c4.466,0,8.084-3.618,8.084-8.084S443.707,377.263,439.242,377.263z M396.126,113.179h43.116c4.466,0,8.084-3.618,8.084-8.084
	s-3.618-8.084-8.084-8.084h-43.116c-4.466,0-8.084,3.618-8.084,8.084S391.66,113.179,396.126,113.179z M202.106,113.179h107.789
	c4.466,0,8.084-3.618,8.084-8.084s-3.618-8.084-8.084-8.084H202.106c-4.465,0-8.084,3.618-8.084,8.084
	S197.641,113.179,202.106,113.179z M202.106,156.295H256c4.466,0,8.084-3.618,8.084-8.084s-3.618-8.084-8.084-8.084h-53.895
	c-4.465,0-8.084,3.618-8.084,8.084S197.641,156.295,202.106,156.295z M396.126,220.968h43.116c4.466,0,8.084-3.618,8.084-8.084
	s-3.618-8.084-8.084-8.084h-43.116c-4.466,0-8.084,3.618-8.084,8.084S391.66,220.968,396.126,220.968z M202.106,220.968h107.789
	c4.466,0,8.084-3.618,8.084-8.084s-3.618-8.084-8.084-8.084H202.106c-4.465,0-8.084,3.618-8.084,8.084
	S197.641,220.968,202.106,220.968z M245.221,440.858H29.643c-16.345,0-29.642-13.298-29.642-29.642V281.869
	c0-16.344,13.297-29.642,29.642-29.642H66.94c-2.864-5.198-4.828-10.839-5.818-16.734c-2.563,0.373-5.158,0.566-7.765,0.566
	c-29.42,0-53.356-23.936-53.356-53.356s23.936-53.356,53.356-53.356c26.37,0,48.32,19.235,52.59,44.407
	c2.538-0.373,5.132-0.572,7.772-0.572c29.42,0,53.356,23.936,53.356,53.356c0,9.07-2.336,17.893-6.619,25.689h84.767
	c16.344,0,29.642,13.298,29.642,29.642v52.278h164.379c4.466,0,8.084,3.618,8.084,8.084c0,4.466-3.618,8.084-8.084,8.084H274.863
	v60.901C274.863,427.561,261.565,440.858,245.221,440.858z M53.356,219.891c2.545,0,5.066-0.264,7.533-0.771
	c2.493-17.835,13.826-32.87,29.423-40.517c-2.049-18.583-17.838-33.087-36.957-33.087c-20.505,0-37.187,16.683-37.187,37.187
	S32.851,219.891,53.356,219.891z M86.847,252.227h53.739c6.584-6.893,10.319-16.095,10.319-25.689
	c0-20.505-16.683-37.187-37.187-37.187S76.53,206.033,76.53,226.538C76.531,236.19,80.194,245.277,86.847,252.227z M29.643,424.69
	h215.578c7.43,0,13.474-6.044,13.474-13.474V281.869c0-7.43-6.044-13.474-13.474-13.474H143.913c-0.016,0-0.031,0.002-0.047,0.002
	c-0.014,0-0.027-0.002-0.041-0.002H29.643c-7.43,0-13.474,6.044-13.474,13.474v129.347C16.169,418.646,22.213,424.69,29.643,424.69z
	 M32.338,336.648v-29.792c0-11.103,9.033-20.136,20.135-20.136h40.572c11.102,0,20.135,9.033,20.135,20.136v29.792
	c0,11.103-9.033,20.136-20.135,20.136H52.473C41.37,356.783,32.338,347.75,32.338,336.648z M48.506,306.856v6.811H61.98
	c4.465,0,8.084,3.618,8.084,8.084c0,4.466-3.62,8.084-8.084,8.084H48.506v6.811c0,2.187,1.78,3.968,3.967,3.968h40.572
	c2.187,0,3.967-1.78,3.967-3.968v-29.792c0-2.187-1.78-3.968-3.967-3.968H52.473C50.285,302.888,48.506,304.669,48.506,306.856z
	 M67.369,377.263H45.811c-4.465,0-8.084,3.618-8.084,8.084s3.62,8.084,8.084,8.084h21.558c4.465,0,8.084-3.618,8.084-8.084
	S71.834,377.263,67.369,377.263z M121.264,377.263H99.706c-4.465,0-8.084,3.618-8.084,8.084s3.62,8.084,8.084,8.084h21.558
	c4.465,0,8.084-3.618,8.084-8.084S125.728,377.263,121.264,377.263z M175.158,377.263H153.6c-4.465,0-8.084,3.618-8.084,8.084
	s3.62,8.084,8.084,8.084h21.558c4.465,0,8.084-3.618,8.084-8.084S179.623,377.263,175.158,377.263z M229.053,377.263h-21.558
	c-4.465,0-8.084,3.618-8.084,8.084s3.62,8.084,8.084,8.084h21.558c4.465,0,8.084-3.618,8.084-8.084S233.518,377.263,229.053,377.263
	z"/>
<g>
</g>
<g>
</g>
<g>
</g>
<g>
</g>
<g>
</g>
<g>
</g>
<g>
</g>
<g>
</g>
<g>
</g>
<g>
</g>
<g>
</g>
<g>
</g>
<g>
</g>
<g>
</g>
<g>
</g>
</svg>
