<?xml version="1.0" encoding="iso-8859-1"?>
<!-- Generator: Adobe Illustrator 19.0.0, SVG Export Plug-In . SVG Version: 6.00 Build 0)  -->
<svg version="1.1" id="Layer_1" xmlns="http://www.w3.org/2000/svg" xmlns:xlink="http://www.w3.org/1999/xlink" x="0px" y="0px"
	 viewBox="0 0 512 512" style="enable-background:new 0 0 512 512;" xml:space="preserve">
<path style="fill:#FEA8D6;" d="M298.857,122.633l198.635,198.635c5.641,5.641,5.641,14.872,0,20.513L340.575,498.698
	c-5.641,5.641-14.872,5.641-20.513,0L12.091,190.725c-5.641-5.641-5.641-14.872,0-20.513L169.007,13.296
	c5.641-5.641,14.872-5.641,20.513,0l71.732,71.732"/>
<g>
	<circle style="fill:#FFFFFF;" cx="146.498" cy="147.694" r="40.691"/>
	<path style="fill:#FFFFFF;" d="M204.839,323.806c-2.32,0-4.64-0.885-6.41-2.654c-3.54-3.542-3.54-9.281,0-12.821l107.098-107.098
		c3.54-3.539,9.281-3.539,12.82,0c3.54,3.542,3.54,9.281,0,12.821L211.249,321.152C209.479,322.92,207.159,323.806,204.839,323.806z
		"/>
	<path style="fill:#FFFFFF;" d="M248.797,367.764c-2.32,0-4.64-0.885-6.41-2.654c-3.54-3.542-3.54-9.281,0-12.821L349.484,245.19
		c3.54-3.539,9.281-3.539,12.82,0c3.54,3.542,3.54,9.281,0,12.821L255.207,365.109C253.438,366.878,251.117,367.764,248.797,367.764
		z"/>
	<path style="fill:#FFFFFF;" d="M292.755,411.722c-2.32,0-4.64-0.885-6.41-2.654c-3.54-3.542-3.54-9.281,0-12.821l107.097-107.098
		c3.54-3.539,9.281-3.539,12.82,0c3.54,3.542,3.54,9.281,0,12.821L299.165,409.067C297.395,410.837,295.075,411.722,292.755,411.722
		z"/>
</g>
<path style="fill:#FF97CB;" d="M353.767,485.505l-13.192,13.192c-5.641,5.641-14.872,5.641-20.513,0L12.091,190.725
	c-5.641-5.641-5.641-14.872,0-20.513l13.848-13.848L353.767,485.505z"/>
<path d="M306.475,116.222c-3.54-3.539-9.281-3.539-12.82,0c-3.54,3.542-3.54,9.281,0,12.821L492.29,327.679
	c2.085,2.085,2.085,5.607,0,7.691L335.375,492.287c-2.086,2.085-5.608,2.085-7.694,0L19.708,184.314
	c-1.015-1.015-1.575-2.381-1.575-3.845c0-1.465,0.56-2.831,1.576-3.846l72.049-72.049l14.948,14.951
	c-13.325,19.371-11.396,46.149,5.814,63.359c9.398,9.397,21.892,14.574,35.182,14.574s25.785-5.176,35.182-14.574
	c9.398-9.398,14.574-21.892,14.574-35.182s-5.176-25.785-14.574-35.182c-9.398-9.397-21.892-14.574-35.182-14.574
	c-10.215,0-19.954,3.069-28.184,8.751l-14.94-14.942l72.047-72.047c2.085-2.087,5.608-2.087,7.692,0l71.732,71.732
	c3.54,3.539,9.281,3.539,12.82,0c3.54-3.542,3.54-9.281,0-12.821L197.139,6.885C192.699,2.445,186.78,0,180.473,0
	s-12.226,2.445-16.667,6.885L91.758,78.934L63.8,50.977c-3.54-3.539-9.281-3.539-12.82,0c-3.54,3.542-3.54,9.281,0,12.821
	l27.957,27.957L6.89,163.803c-4.441,4.44-6.887,10.359-6.887,16.667c0,6.307,2.445,12.226,6.886,16.666l307.973,307.973
	c4.594,4.594,10.63,6.891,16.666,6.891c6.035,0,12.072-2.297,16.667-6.891l156.917-156.917c4.441-4.441,6.886-10.36,6.886-16.667
	s-2.445-12.226-6.886-16.667L306.475,116.222z M147.704,116.075c8.447,0,16.389,3.29,22.361,9.264
	c12.33,12.33,12.33,32.393,0,44.723c-5.974,5.974-13.915,9.264-22.361,9.264c-8.448,0-16.389-3.29-22.363-9.264
	c-10.103-10.103-11.922-25.394-5.469-37.373l21.421,21.422c1.77,1.77,4.09,2.654,6.41,2.654s4.64-0.885,6.41-2.654
	c3.54-3.542,3.54-9.281,0-12.821l-21.431-21.433C137.244,117.389,142.372,116.075,147.704,116.075z"/>
<path d="M306.735,201.231L199.637,308.329c-3.54,3.542-3.54,9.281,0,12.821c1.77,1.77,4.09,2.654,6.41,2.654
	c2.32,0,4.64-0.885,6.41-2.654l107.098-107.098c3.54-3.542,3.54-9.281,0-12.821C316.016,197.693,310.276,197.693,306.735,201.231z"
	/>
<path d="M350.693,245.19L243.596,352.288c-3.54,3.542-3.54,9.281,0,12.821c1.77,1.77,4.09,2.654,6.41,2.654s4.64-0.885,6.41-2.654
	l107.097-107.098c3.54-3.542,3.54-9.281,0-12.821C359.972,241.651,354.232,241.651,350.693,245.19z"/>
<path d="M287.554,409.067c1.77,1.77,4.09,2.654,6.41,2.654c2.32,0,4.64-0.885,6.41-2.654L407.47,301.969
	c3.54-3.542,3.54-9.281,0-12.821c-3.54-3.539-9.281-3.539-12.82,0L287.554,396.246C284.013,399.787,284.013,405.526,287.554,409.067
	z"/>
<g>
</g>
<g>
</g>
<g>
</g>
<g>
</g>
<g>
</g>
<g>
</g>
<g>
</g>
<g>
</g>
<g>
</g>
<g>
</g>
<g>
</g>
<g>
</g>
<g>
</g>
<g>
</g>
<g>
</g>
</svg>
